<?xml version="1.0" standalone="no"?>
<!DOCTYPE svg PUBLIC "-//W3C//DTD SVG 20010904//EN"
 "http://www.w3.org/TR/2001/REC-SVG-20010904/DTD/svg10.dtd">
<svg version="1.0" xmlns="http://www.w3.org/2000/svg"
 width="500.000000pt" height="500.000000pt" viewBox="0 0 500.000000 500.000000"
 preserveAspectRatio="xMidYMid meet">
<metadata>
Created by potrace 1.14, written by Peter Selinger 2001-2017
</metadata>
<g transform="translate(0.000000,500.000000) scale(0.100000,-0.100000)"
fill="#000000" stroke="none">
<path d="M2603 4480 c-21 -12 -35 -15 -53 -8 -29 11 -98 -12 -125 -42 -10 -11
-29 -20 -42 -20 -35 0 -78 -25 -103 -60 -12 -16 -30 -30 -40 -30 -36 0 -69
-23 -79 -54 -20 -63 -33 -162 -30 -236 2 -41 0 -80 -4 -87 -4 -6 -22 -15 -40
-18 -17 -4 -73 -23 -124 -42 -78 -29 -96 -32 -114 -22 -17 9 -38 9 -89 0 -49
-9 -78 -9 -115 -1 -28 7 -57 13 -66 15 -10 2 -36 15 -59 30 -60 38 -102 43
-129 16 -14 -14 -29 -20 -41 -16 -33 10 -57 -11 -69 -62 -6 -26 -21 -71 -32
-99 l-20 -52 45 -88 c25 -49 53 -102 64 -119 l19 -30 -37 -45 c-136 -167 -247
-404 -297 -640 -25 -120 -25 -447 0 -574 22 -109 78 -279 118 -358 l29 -58
-27 -6 c-16 -3 -32 -7 -37 -8 -11 -2 -15 -591 -5 -607 4 -7 2161 -14 2752 -9
l47 0 0 310 c0 288 -1 310 -17 312 -10 0 -22 2 -28 3 -5 2 -13 3 -17 4 -4 0 6
28 23 61 38 78 93 242 116 350 14 66 18 129 18 280 0 270 -27 399 -131 636
-30 67 -54 130 -54 139 0 9 -8 19 -17 21 -10 3 -34 30 -53 60 -56 88 -169 213
-267 294 -62 52 -92 84 -96 103 -5 19 -16 31 -37 38 -16 6 -30 15 -30 19 0 4
-13 13 -30 19 -22 7 -30 16 -30 35 0 31 -27 59 -49 51 -75 -29 -95 -29 -181 3
-47 18 -125 42 -175 54 -49 12 -91 23 -93 24 -1 0 12 34 29 75 37 87 40 146
15 284 -19 101 -36 135 -68 135 -11 0 -26 7 -33 16 -16 23 -58 25 -92 4z m242
-574 c55 -14 116 -31 135 -39 19 -8 44 -17 55 -21 17 -6 14 -10 -23 -32 l-42
-25 -132 33 c-73 18 -134 33 -136 34 -5 2 29 74 36 74 4 0 52 -11 107 -24z
m-702 -13 c3 -5 8 -22 11 -39 7 -30 6 -32 -41 -45 -26 -7 -85 -27 -130 -45
l-82 -32 -6 40 c-4 21 -5 41 -3 42 3 3 175 68 208 79 23 8 38 8 43 0z m1283
-275 c74 -61 180 -173 247 -263 37 -49 67 -93 67 -97 0 -5 -19 -8 -43 -8 -42
0 -45 2 -105 78 -66 84 -141 163 -197 209 -33 28 -35 32 -29 71 4 23 10 42 14
42 4 0 24 -14 46 -32z m-2025 -216 c8 -10 18 -23 22 -29 4 -7 -15 -42 -44 -80
-301 -403 -348 -961 -119 -1430 21 -43 36 -81 34 -84 -2 -4 -21 -6 -41 -5 -36
1 -40 5 -70 61 -38 72 -98 244 -117 340 -67 327 -25 669 115 948 51 100 181
297 197 297 4 0 14 -8 23 -18z m2513 -545 c90 -344 58 -704 -87 -996 -41 -83
-43 -85 -80 -87 -20 -1 -39 2 -42 6 -2 4 15 47 40 96 135 272 171 559 110 884
-7 41 -18 86 -23 100 -5 14 -6 34 -1 45 5 11 14 40 20 65 l12 45 13 -33 c8
-17 25 -74 38 -125z"/>
<path d="M490 1581 c0 -3 38 -74 83 -157 l84 -152 -75 -133 c-40 -74 -78 -144
-82 -156 l-9 -21 402 -1 402 0 -125 63 -125 64 -5 248 -5 249 -272 1 c-150 1
-273 -1 -273 -5z"/>
<path d="M3960 1536 c0 -28 -2 -139 -3 -246 l-2 -195 -125 -67 -125 -67 408
-1 409 0 -25 43 c-13 23 -52 93 -86 155 l-62 113 47 87 c25 48 64 119 86 159
l39 72 -280 -1 -281 -1 0 -51z"/>
<path d="M1190 1086 c0 -2 45 -27 100 -55 l100 -52 0 56 0 55 -100 0 c-55 0
-100 -2 -100 -4z"/>
<path d="M3617 1076 c-3 -8 -4 -22 -2 -32 2 -11 4 -29 4 -41 1 -20 6 -19 89
24 48 25 91 49 97 54 5 5 -32 9 -87 9 -73 0 -97 -3 -101 -14z"/>
</g>
</svg>
